<?xml version="1.0" encoding="UTF-8" standalone="no"?>
<svg
   xmlns:dc="http://purl.org/dc/elements/1.1/"
   xmlns:cc="http://creativecommons.org/ns#"
   xmlns:rdf="http://www.w3.org/1999/02/22-rdf-syntax-ns#"
   xmlns:svg="http://www.w3.org/2000/svg"
   xmlns="http://www.w3.org/2000/svg"
   xmlns:sodipodi="http://sodipodi.sourceforge.net/DTD/sodipodi-0.dtd"
   xmlns:inkscape="http://www.inkscape.org/namespaces/inkscape"
   width="210mm"
   height="297mm"
   viewBox="0 0 210 297"
   version="1.1"
   id="svg8"
   inkscape:version="1.0.2 (e86c8708, 2021-01-15)"
   sodipodi:docname="Boxy_Andy.svg">
  <defs
     id="defs2">
    <style
       id="style833">
      @font-face {
        font-family: &quot;Virgil&quot;;
        src: url(&quot;https://excalidraw.com/Virgil.woff2&quot;);
      }
      @font-face {
        font-family: &quot;Cascadia&quot;;
        src: url(&quot;https://excalidraw.com/Cascadia.woff2&quot;);
      }
    </style>
  </defs>
  <sodipodi:namedview
     id="base"
     pagecolor="#ffffff"
     bordercolor="#666666"
     borderopacity="1.0"
     inkscape:pageopacity="0.0"
     inkscape:pageshadow="2"
     inkscape:zoom="0.44523335"
     inkscape:cx="405.46317"
     inkscape:cy="601.29948"
     inkscape:document-units="mm"
     inkscape:current-layer="layer1"
     inkscape:document-rotation="0"
     showgrid="false"
     inkscape:window-width="1252"
     inkscape:window-height="755"
     inkscape:window-x="91"
     inkscape:window-y="58"
     inkscape:window-maximized="0" />
  <metadata
     id="metadata5">
    <rdf:RDF>
      <cc:Work
         rdf:about="">
        <dc:format>image/svg+xml</dc:format>
        <dc:type
           rdf:resource="http://purl.org/dc/dcmitype/StillImage" />
        <dc:title></dc:title>
      </cc:Work>
    </rdf:RDF>
  </metadata>
  <g
     inkscape:label="Layer 1"
     inkscape:groupmode="layer"
     id="layer1">
    <g
       id="g967"
       transform="matrix(0.26458333,0,0,0.26458333,80.694075,76.890097)">
      <rect
         x="0"
         y="0"
         width="248.0061"
         height="231.84032"
         fill="#ffffff"
         id="rect837" />
      <g
         id="g843">
        <g
           transform="rotate(16.854735,-337.12113,240.41954)"
           id="g841">
          <path
             d="M 1.1977379,-0.26160109 C -2.4431262,-2.9586803 -0.00886664,-8.3246314 -3.5989749,-16.627278 M 0.5868813,-0.05881293 C -0.97578198,-5.2736032 -2.4864535,-11.153546 -3.8467061,-17.434234"
             stroke="#000000"
             stroke-width="1"
             fill="none"
             id="path839" />
        </g>
      </g>
      <g
         transform="rotate(16.854735,-244.04301,228.90648)"
         id="g847">
        <path
           d="M 1.4435066,0.35235776 C 2.1071128,-0.22972696 4.1920763,-0.08594778 5.0036612,0.1157643 5.8152461,0.31747638 5.7949435,0.82810771 6.313016,1.5626302 6.8310885,2.2971528 8.0985749,3.5871371 8.1120961,4.5228995 8.1256173,5.4586618 7.1527525,6.651757 6.3941432,7.1772043 5.6355338,7.7026516 4.4270272,7.5840094 3.56044,7.675583 2.6938527,7.7671567 1.6944327,8.0256578 1.1946196,7.7266463 0.69480653,7.4276348 0.58310689,6.7726773 0.5615616,5.8815143 0.5400163,4.9903513 0.58328758,3.4627141 1.0653478,2.3796681 1.547408,1.2966221 3.1720327,-0.3150315 3.453923,-0.61676145 3.7358132,-0.91849139 2.9736381,0.46379551 2.7566891,0.56928844 m -0.8162,-1.23527965 C 2.6305999,-1.169756 5.503016,-0.86240179 6.4147167,-0.34056593 7.3264173,0.18126993 7.2043814,1.5178977 7.4106929,2.4650239 7.6170043,3.4121502 8.1437046,4.6903732 7.6525852,5.3421915 7.1614659,5.9940098 5.1867552,5.7185335 4.4639766,6.3759337 3.741198,7.0333338 3.8922098,9.1063965 3.3159135,9.2865925 2.7396172,9.4667886 1.7888524,8.405031 1.0061987,7.45711 0.22354505,6.509189 -1.132993,4.5119494 -1.3800085,3.5990665 -1.6270241,2.6861837 -0.97783412,2.5232617 -0.47589456,1.9798127 0.026045,1.4363636 1.1312592,0.7371892 1.6316288,0.33837233 2.1319984,-0.06044455 2.1684572,-0.50630613 2.526323,-0.41308858"
           stroke="#000000"
           stroke-width="1"
           fill="none"
           id="path845" />
      </g>
      <g
         id="g853">
        <g
           transform="rotate(-3.9752877,2122.6388,-886.61073)"
           id="g851">
          <path
             d="M -5.5275014,-1.0955556 C -2.6985068,1.1426451 10.293557,3.2363482 11.474796,14.243801 12.656035,25.251254 6.0473974,55.502858 1.5599304,64.949163 -2.9275366,74.395468 -11.291041,79.121353 -15.450006,70.92163 -19.60897,62.721906 -25.210309,27.584426 -23.393857,15.750821 -21.577404,3.9172166 -7.554295,2.565807 -4.5512918,-0.07999889 M -7.0800473,0.94367376 C -4.3578819,2.7965359 8.9002948,1.7927336 10.755369,12.670652 12.610443,23.548571 8.3364899,56.319681 4.0503972,66.211187 -0.2356956,76.102693 -10.707415,80.38573 -14.961188,72.01969 -19.214961,63.65365 -22.902448,28.211887 -21.472242,16.014946 -20.042036,3.8180044 -9.1675451,1.7630168 -6.3799513,-1.1619585"
             stroke="#000000"
             stroke-width="1"
             fill="none"
             id="path849" />
        </g>
      </g>
      <g
         id="g859">
        <g
           transform="rotate(7.1825945,-1176.0895,701.00224)"
           id="g857">
          <path
             d="M -1.0955556,7.7884831 C 3.5828701,2.7601778 27.342734,-12.414475 28.885152,-22.99473 30.427569,-33.574985 11.597549,-50.081649 8.1589482,-55.693048 M 0.53013898,6.9714973 C 5.0708371,2.0958219 27.351924,-11.06695 28.486532,-21.86114 29.62114,-32.655329 10.669768,-52.132726 7.3377868,-57.793642"
             stroke="#000000"
             stroke-width="1"
             fill="none"
             id="path855" />
        </g>
      </g>
      <g
         id="g865">
        <g
           transform="rotate(-11.395211,796.42125,-119.9466)"
           id="g863">
          <path
             d="M 3.8162481,7.9966401 C -1.1488508,5.4792577 -23.667436,0.93103348 -26.587727,-9.2497351 -29.508017,-19.430504 -15.690854,-45.743245 -13.705495,-53.087971 M 2.5857275,7.500462 C -1.9791306,5.2740647 -21.477107,2.1116849 -24.279607,-7.7677729 c -2.802501,-9.8794581 8.453072,-36.5796661 10.050332,-44.0085121"
             stroke="#000000"
             stroke-width="1"
             fill="none"
             id="path861" />
        </g>
      </g>
      <g
         transform="rotate(-9.8658069,670.4736,-117.42054)"
         id="g869">
        <path
           d="m 6.177068,0.72577208 m 2.5939229,-0.7441858 C 19.814549,-0.37316819 34.654189,-0.10454674 40.655552,-0.20669001 M 7.8562892,0.41437683 C 16.342325,0.89653644 23.731589,0.98477516 39.887757,-0.43321171 M 40.699309,0 c 4.156877,-1.0428265 9.726281,3.473923 8.877698,6.8485704 M 39.59759,-1.0817783 c 6.901612,1.04710114 9.603677,3.6318994 10.803709,7.9416193 M 49.450492,7.9147284 C 48.673364,9.8253017 47.403329,13.392598 48.861903,22.797702 M 49.190998,8.182666 c -1.213721,5.206635 -0.659313,10.075327 -1.260523,16.049076 m 0.771828,-0.22276 c -0.107975,5.265178 -0.933837,9.586005 -7.954908,9.1617 m 9.471761,-9.143118 c 0.487035,6.209167 -5.18,6.645998 -8.373341,8.357535 m 0.424752,-2.189305 C 29.401767,29.976889 19.868111,32.750637 7.5947729,30.772899 M 41.381381,32.33604 C 30.920522,31.252331 19.530859,32.179803 8.1724408,31.381151 M 8.002994,32.011976 C 3.7505273,30.87617 1.5131662,27.392307 -1.0566084,24.465925 m 7.8622641,6.829789 C 4.1571054,30.804601 0.80200222,29.193682 1.5320397,22.898441 M 0.00419101,24.637849 C -0.91699507,18.324008 1.5321344,10.934618 -0.03087002,6.4332492 M -0.57739274,23.910635 C -0.05884562,19.749107 0.28816149,15.86549 -0.35933555,8.2057421 M 0,8.002994 C 1.3159369,4.2559989 1.1508436,1.5293381 9.98549,1.068412 M -1.3224184,9.544808 C -0.0186226,0.73594637 3.2942391,0.37315337 9.0437489,1.6832007"
           stroke="#000000"
           stroke-width="1"
           fill="none"
           id="path867" />
      </g>
      <g
         id="g875">
        <g
           transform="translate(62.440314,130.38013)"
           id="g873">
          <path
             d="M 2.1107925,0.30721537 C 0.16358189,0.26067904 -4.2654336,1.2071898 -8.3677986,1.1801668 -12.470164,1.1531438 -23.323588,-1.2726341 -22.503397,0.14507712 -21.683207,1.5627883 -8.7261764,10.256773 -3.4466552,9.6864341 1.832866,9.1160954 8.2326506,-1.5509925 9.1737298,-3.2769552 10.114809,-5.0029179 3.3401506,-1.2549703 2.1998195,-0.66934217 M 3.9078189,-0.79385165 C 1.8048038,-0.11855793 -4.4998773,2.356825 -9.073925,2.7117917 -13.647973,3.0667585 -24.585346,-0.00346853 -23.536468,1.3359488 -22.487589,2.6753661 -7.9848867,11.462841 -2.7806532,10.748296 2.4235803,10.03375 6.6829974,-1.390364 7.6889332,-2.9513229 8.694869,-4.5122819 4.0886419,1.0908872 3.2549614,1.3825419"
             stroke="#000000"
             stroke-width="1"
             fill="none"
             id="path871" />
        </g>
      </g>
      <g
         transform="translate(41.692501,113.54631)"
         id="g879">
        <path
           d="M 5.6416668,-0.06660692 C 6.7260819,-0.12641584 7.5550745,0.55790274 8.1734729,1.1791017 8.7918713,1.8003007 9.2336929,2.4973469 9.3520572,3.6605868 9.4704215,4.8238268 9.2514463,6.9114167 8.8836588,8.1585415 8.5158714,9.4056664 7.9495544,10.737347 7.1453325,11.143336 6.3411106,11.549325 4.9964258,11.195372 4.0583274,10.594475 3.1202291,9.9935792 2.2533309,8.46202 1.5167425,7.5379591 0.78015405,6.6138981 -0.30692178,6.1854236 -0.36120326,5.0501097 -0.41548475,3.9147957 0.24448601,1.4109937 1.1910536,0.72607544 2.1376211,0.04115717 4.3421849,1.0823071 5.318202,0.9406 6.2942192,0.7988929 7.0644057,-0.19488635 7.0471567,-0.12416714 M 4.0951805,0.09388867 C 4.7822912,-0.49084066 4.8772278,-1.5459822 5.7739269,-0.89935981 6.670626,-0.25273744 8.8163316,2.6274653 9.4753751,3.9736229 10.134419,5.3197804 10.237669,6.328372 9.7281877,7.1775855 9.2187067,8.0267989 7.4823195,8.3943781 6.4184889,9.0689034 5.3546583,9.7434287 4.3678705,11.13327 3.3452042,11.224737 2.3225379,11.316204 0.88102475,10.601764 0.28249104,9.6177054 -0.31604266,8.6336466 -0.50867668,6.4826772 -0.245998,5.3203845 0.01668068,4.1580918 1.4070988,3.3840072 1.8585631,2.6439492 2.3100275,1.9038911 2.1847971,1.1995312 2.4627881,0.88003627 2.7407791,0.56054134 3.5292907,0.68595702 3.5265093,0.72697961"
           stroke="#000000"
           stroke-width="1"
           fill="none"
           id="path877" />
      </g>
      <g
         transform="translate(44.140508,116.21303)"
         id="g883">
        <path
           d="M 1.5267747,0 C 1.8375487,-0.02599061 2.2575699,0.19589588 2.5081665,0.47626322 2.7587631,0.75663056 2.9735485,1.2526563 3.0303542,1.682204 3.0871598,2.1117517 3.0125656,2.6758114 2.8490003,3.0535493 2.685435,3.4312872 2.3563646,3.799451 2.0489623,3.9486314 1.7415601,4.0978117 1.3119892,4.0978117 1.004587,3.9486314 0.69718475,3.799451 0.36811432,3.4312872 0.20454902,3.0535493 0.04098371,2.6758114 -0.0336105,2.1117517 0.02319514,1.682204 0.08000077,1.2526563 0.29478624,0.75663056 0.54538282,0.47626322 0.79597941,0.19589588 1.3632093,0.07259154 1.5267747,0 c 0.1635653,-0.07259154 0,0.00678567 0,0.04071399 M 1.5267747,0 C 1.8375487,-0.02599061 2.2575699,0.19589588 2.5081665,0.47626322 2.7587631,0.75663056 2.9735485,1.2526563 3.0303542,1.682204 3.0871598,2.1117517 3.0125656,2.6758114 2.8490003,3.0535493 2.685435,3.4312872 2.3563646,3.799451 2.0489623,3.9486314 1.7415601,4.0978117 1.3119892,4.0978117 1.004587,3.9486314 0.69718475,3.799451 0.36811432,3.4312872 0.20454902,3.0535493 0.04098371,2.6758114 -0.0336105,2.1117517 0.02319514,1.682204 0.08000077,1.2526563 0.29478624,0.75663056 0.54538282,0.47626322 0.79597941,0.19589588 1.3632093,0.07259154 1.5267747,0 c 0.1635653,-0.07259154 0,0.00678567 0,0.04071399"
           stroke="#000000"
           stroke-width="1"
           fill="none"
           id="path881" />
      </g>
      <g
         transform="translate(59.549515,112.35584)"
         id="g887">
        <path
           d="M 4.4760203,-0.07533885 C 5.2767725,-0.398419 6.4327684,-0.60164189 7.2457839,0.06045895 8.0587995,0.72255979 8.8996802,2.5382074 9.3541136,3.8972662 9.808547,5.2563249 10.211542,7.1361907 9.9723843,8.2148114 9.7332266,9.2934322 8.8137579,10.051289 7.9191673,10.368991 7.0245767,10.686692 5.8398355,10.31034 4.6048406,10.121021 3.3698456,9.9317017 1.3705899,10.161297 0.5091976,9.233075 -0.35219467,8.3048528 -0.62805643,5.6672147 -0.56351302,4.5516882 -0.49896962,3.4361617 -0.09323732,3.3903262 0.89645801,2.539916 1.8861534,1.6895058 4.7081348,-0.27268972 5.374659,-0.55077304 6.0411832,-0.82885636 5.0451635,0.65341677 4.8956032,0.87141606 M 3.5633654,-1.4509637 C 4.5124582,-1.4007227 7.0562596,0.95398878 8.1012857,1.9732135 9.1463118,2.9924381 9.8580764,3.790109 9.8335221,4.6643843 9.8089678,5.5386596 8.6608222,6.1790101 7.9539599,7.2188653 7.2470976,8.2587205 6.553034,10.277393 5.592348,10.903516 4.631662,11.529639 3.0503865,11.505852 2.189844,10.975603 1.3293014,10.445355 0.629815,8.723697 0.42909248,7.7220265 0.22836995,6.720356 0.98200742,5.9133615 0.98550881,4.9655803 0.9890102,4.0177991 -0.1679639,2.7881081 0.45010083,2.0353395 1.0681656,1.2825709 4.182936,0.70007441 4.6938972,0.4489687 5.2048584,0.19786298 3.4645869,0.36614467 3.515868,0.52870521"
           stroke="#000000"
           stroke-width="1"
           fill="none"
           id="path885" />
      </g>
      <g
         transform="translate(61.997522,115.02256)"
         id="g891">
        <path
           d="M 1.5267747,0 C 1.8375487,-0.02599061 2.2575699,0.19589588 2.5081665,0.47626322 2.7587631,0.75663056 2.9735485,1.2526563 3.0303542,1.682204 3.0871598,2.1117517 3.0125656,2.6758114 2.8490003,3.0535493 2.685435,3.4312872 2.3563646,3.799451 2.0489623,3.9486314 1.7415601,4.0978117 1.3119892,4.0978117 1.004587,3.9486314 0.69718475,3.799451 0.36811432,3.4312872 0.20454902,3.0535493 0.04098371,2.6758114 -0.0336105,2.1117517 0.02319514,1.682204 0.08000077,1.2526563 0.29478624,0.75663056 0.54538282,0.47626322 0.79597941,0.19589588 1.3632093,0.07259154 1.5267747,0 c 0.1635653,-0.07259154 0,0.00678567 0,0.04071399 M 1.5267747,0 C 1.8375487,-0.02599061 2.2575699,0.19589588 2.5081665,0.47626322 2.7587631,0.75663056 2.9735485,1.2526563 3.0303542,1.682204 3.0871598,2.1117517 3.0125656,2.6758114 2.8490003,3.0535493 2.685435,3.4312872 2.3563646,3.799451 2.0489623,3.9486314 1.7415601,4.0978117 1.3119892,4.0978117 1.004587,3.9486314 0.69718475,3.799451 0.36811432,3.4312872 0.20454902,3.0535493 0.04098371,2.6758114 -0.0336105,2.1117517 0.02319514,1.682204 0.08000077,1.2526563 0.29478624,0.75663056 0.54538282,0.47626322 0.79597941,0.19589588 1.3632093,0.07259154 1.5267747,0 c 0.1635653,-0.07259154 0,0.00678567 0,0.04071399"
           stroke="#000000"
           stroke-width="1"
           fill="none"
           id="path889" />
      </g>
      <g
         transform="rotate(-0.21863916,2739.8228,-18103.838)"
         id="g895">
        <path
           d="m 120.28693,3.2989248 c 11.78191,1.6676815 24.13624,6.695503 31.97432,11.7776592 7.83809,5.082157 13.17052,12.492547 15.0542,18.71528 1.88368,6.222733 0.38309,12.624676 -3.75212,18.62112 -4.13521,5.996444 -11.71134,12.934087 -21.05914,17.357544 -9.3478,4.423457 -22.46662,7.553102 -35.02766,9.183195 C 94.915496,80.583816 80.011595,80.787314 67.137969,79.551087 54.264342,78.314861 40.409805,75.347844 30.234776,71.536364 20.059748,67.724885 10.912478,62.356146 6.0877986,56.682212 1.2631196,51.008277 0.12855637,43.98033 1.2867021,37.492758 2.4448478,31.005187 6.0091972,23.187153 13.036673,17.756784 20.064149,12.326416 32.14604,7.7961688 43.451557,4.9105481 54.757074,2.0249274 65.939174,-0.01204458 80.869774,0.44306029 c 14.9306,0.45510487 41.940756,5.14602131 52.165386,7.19811701 10.22463,2.0520957 9.94891,4.6833147 9.18241,5.1144567 M 66.285051,1.6463389 c 11.806422,-2.14002189 28.070237,-2.7906704 40.988999,-1.01002444 12.91876,1.78064594 27.04273,7.28633324 36.52356,11.69390054 9.48082,4.407566 16.30766,9.132127 20.36138,14.751501 4.05372,5.619373 5.9691,12.647586 3.96094,18.96474 -2.00817,6.317154 -8.06704,13.909305 -16.00993,18.938185 -7.94289,5.028879 -19.73532,8.812805 -31.64741,11.235091 -11.9121,2.422285 -26.518581,3.556134 -39.825143,3.298621 C 67.330884,79.26084 52.079206,77.485988 40.623211,74.674651 29.167216,71.863315 18.59614,67.892142 11.901475,62.650334 5.2068096,57.408526 1.2231392,49.629742 0.45521908,43.223804 -0.31270108,36.817866 1.8949575,29.844026 7.2939539,24.214707 12.69295,18.585388 23.008605,13.186573 32.849198,9.4478868 42.68979,5.7092011 60.433191,2.9140376 66.337508,1.7825924 c 5.904316,-1.1314452 1.665317,0.47401 1.937588,0.8766231"
           stroke="#000000"
           stroke-width="1"
           fill="none"
           id="path893" />
      </g>
      <g
         id="g903">
        <g
           transform="rotate(-0.21863916,19252.508,-24444.74)"
           fill-rule="evenodd"
           id="g901">
          <path
             d="m -7.0367732,0 -11.0347828,21.296089 -0.836787,3.936338 3.960836,-1.46568 7.152228,-4.89226 7.19436692,-5.940842 L 3.4863415,8.3222174 2.9234601,5.4427679 -7.0367732,0"
             stroke="none"
             stroke-width="0"
             fill="#ffffff"
             fill-rule="evenodd"
             id="path897" />
          <path
             d="M -7.0367732,0 C -9.0153681,4.2054044 -20.662195,23.84539 -18.908343,25.232427 -17.15449,26.619463 1.5077466,12.527622 3.4863415,8.3222174 5.4649365,4.116813 -5.2829207,1.3870362 -7.0367732,0 m 0,0 C -9.0153681,4.2054044 -20.662195,23.84539 -18.908343,25.232427 -17.15449,26.619463 1.5077466,12.527622 3.4863415,8.3222174 5.4649365,4.116813 -5.2829207,1.3870362 -7.0367732,0"
             stroke="#ffffff"
             stroke-width="1"
             fill="none"
             id="path899" />
        </g>
      </g>
      <g
         id="g909">
        <g
           transform="rotate(-0.21863916,19347.444,-24039.448)"
           id="g907">
          <path
             d="M -5.4959498,0.65661776 C -7.2205963,4.7000964 -18.199219,23.753402 -16.410528,24.9772 -14.621838,26.200998 1.7154271,11.000987 5.2361934,7.9994042 M -6.4005049,-0.04426186 C -8.2213674,4.1369676 -18.484749,25.48505 -16.730676,26.490995 -14.976602,27.49694 0.61210881,9.0958358 4.1239374,5.9914095"
             stroke="#000000"
             stroke-width="1"
             fill="none"
             id="path905" />
        </g>
      </g>
      <g
         transform="translate(81.931804,28.284997)"
         id="speech-bubble">
        <text
           x="77"
           y="14"
           font-family="Virgil, 'Segoe UI Emoji'"
           font-size="16px"
           fill="#000000"
           text-anchor="middle"
           style="white-space:pre"
           direction="ltr"
           id="line1">Learning resources </text>
        <text
           x="77"
           y="34"
           font-family="Virgil, 'Segoe UI Emoji'"
           font-size="16px"
           fill="#000000"
           text-anchor="middle"
           style="white-space:pre"
           direction="ltr"
           id="line2">for 5 - 8 year </text>
        <text
           x="77"
           y="54"
           font-family="Virgil, 'Segoe UI Emoji'"
           font-size="16px"
           fill="#000000"
           text-anchor="middle"
           style="white-space:pre"
           direction="ltr"
           id="line3">olds</text>
      </g>
    </g>
  </g>
</svg>
