import React from 'react';

<svg version="1.1" xmlns="http://www.w3.org/2000/svg" viewBox="0 0 252.8560902046953 234.4469925985174" width="758.5682706140859" height="703.3409777955521">
  <!-- svg-source:excalidraw -->
  
  <defs>
    <style>
      @font-face {
        font-family: "Virgil";
        src: url("https://excalidraw.com/Virgil.woff2");
      }
      @font-face {
        font-family: "Cascadia";
        src: url("https://excalidraw.com/Cascadia.woff2");
      }
    </style>
  </defs>
  <g transform="translate(74.1070236747862 10.000989455844092) rotate(359.7813608351975 84.37477005845238 40.38400748405826)"><path d="M120.28692934915247 3.298924773996852 C132.06884483701202 4.966606259122158, 144.42316726637395 9.994427760733604, 152.2612540479251 15.076584332866659 C160.09934082947623 20.158740904999714, 165.43177097496005 27.569130981235222, 167.31545003845935 33.791864206795175 C169.19912910195865 40.01459743235513, 167.69853809136742 46.41653971487129, 163.5633284289208 52.41298368622638 C159.4281187664742 58.409427657581475, 151.8519912444112 65.34707149757831, 142.5041920637796 69.77052803492572 C133.15639288314802 74.19398457227312, 120.03757058324635 77.3236296726565, 107.47653334513116 78.95372291031079 C94.91549610701597 80.58381614796508, 80.01159479407903 80.78731389133479, 67.13796863508851 79.55108746085145 C54.26434247609799 78.3148610303681, 40.409804728875194 75.34784361637965, 30.234776391188028 71.53636432741071 C20.05974805350086 67.72488503844177, 10.912477658064937 62.35614605324267, 6.0877986089655 56.68221172703783 C1.2631195598660616 51.008277400832995, 0.12855636984904817 43.9803295950096, 1.286702096591398 37.492758370181676 C2.444847823333748 31.005187145353755, 6.009197162948108 23.18715276127459, 13.036672969419598 17.756784378070297 C20.064148775891088 12.326415994866004, 32.14604014629468 7.796168752163684, 43.45155693542034 4.910548070955912 C54.757073724546004 2.024927389748139, 65.93917367013076 -0.012044580884419787, 80.86977370417357 0.4430602908236594 C95.80037373821638 0.8981651625317386, 122.81052523307976 5.589081633169471, 133.0351571396772 7.641177301204387 C143.25978904627468 9.693272969239302, 142.98406967686816 12.324491579703205, 142.2175651437583 12.755634299033158 M66.28505083384034 1.6463388866769932 C78.0914726225266 -0.49368298801430877, 94.3552878637888 -1.1443314795294324, 107.27404746564525 0.6363144579368338 C120.1928070675017 2.4169603954031, 134.3167845136643 7.922647662971046, 143.79760844497906 12.33021451147459 C153.27843237629384 16.737781359978136, 160.1052711512864 21.462341959855216, 164.15899105353384 27.0817155489581 C168.2127109557813 32.701089138060986, 170.1280926954783 39.72930187930887, 168.11992785846383 46.046456046091905 C166.11176302144935 52.36361021287494, 160.0528924779682 59.95576130392232, 152.110002031447 64.98464054965632 C144.16711158492583 70.01351979539032, 132.37467773913573 73.7974461192028, 120.46258517933674 76.21973152049588 C108.55049261953776 78.64201692178897, 93.94400906243584 79.77586633260086, 80.63744667265313 79.51835295741479 C67.33088428287041 79.26083958222873, 52.07920614091654 77.48598772408766, 40.6232108406405 74.6746512693795 C29.167215540364467 71.86331481467133, 18.596140164335317 67.89214216007161, 11.901474870996893 62.650334229165814 C5.2068095776584675 57.40852629826001, 1.2231392427018783 49.62974155225851, 0.4552190806099503 43.223803683944666 C-0.31270108148197784 36.817865815630824, 1.8949574908320495 29.844026495732436, 7.293953898445324 24.21470701928277 C12.692950306058599 18.585387542833104, 23.008605257563758 13.186572591389703, 32.84919752628959 9.447886825246663 C42.68978979501543 5.709201059103622, 60.43319108248983 2.9140376423507526, 66.33750751080032 1.7825924224245213 C72.24182393911082 0.6511472024982901, 68.00282521722222 2.256602371577381, 68.27509609615254 2.659215505689275" stroke="#000000" stroke-width="1" fill="none"></path></g><g><g transform="translate(98.31861309428803 73.31806907373118) rotate(359.7813608351975 -7.667849993809284 12.61621327044628)"><path d="M-7.03677318049717 0 C-9.01536808940242 4.205404423482094, -20.66219508795069 23.845390310963765, -18.90834263392867 25.23242654089257 C-17.15449017990665 26.61946277082137, 1.5077466347296948 12.527621803054917, 3.4863415436349445 8.322217379572823 C5.4649364525401944 4.116812956090729, -5.282920726475151 1.387036229928804, -7.03677318049717 0 M-7.03677318049717 0 C-9.01536808940242 4.205404423482094, -20.66219508795069 23.845390310963765, -18.90834263392867 25.23242654089257 C-17.15449017990665 26.61946277082137, 1.5077466347296948 12.527621803054917, 3.4863415436349445 8.322217379572823 C5.4649364525401944 4.116812956090729, -5.282920726475151 1.387036229928804, -7.03677318049717 0" stroke="#fff" stroke-width="1" fill="none"></path></g></g><g><g transform="translate(96.77502561548636 73.67631387102449) rotate(359.7813608351975 -5.840320298807228 13.223366599407768)"><path d="M-5.495949750416666 0.6566177621483802 C-7.220596308845513 4.700096449479064, -18.199218893823154 23.753402125599994, -16.410528367423467 24.977199864236127 C-14.62183784102378 26.20099760287226, 1.7154270571769672 11.000987217473565, 5.236193407981453 7.9994041939651686 M-6.400504884547308 -0.04426185806281868 C-8.221367437036195 4.136967557100183, -18.48474930239742 25.48504983709866, -16.73067558220682 26.490995056878266 C-14.976601862016222 27.49694027665787, 0.612108809130405 9.095835761875612, 4.123937436596287 5.991409460614817" stroke="#000000" stroke-width="1" fill="none"></path></g></g><g transform="translate(86.7817937332386 28.284996939902385) rotate(0 77 30)">

  <text x="77" y="14" font-family="Virgil, Segoe UI Emoji" font-size="16px" fill="#000000" text-anchor="middle" style="white-space: pre;" direction="ltr">
  Click me to
  </text>

  <text x="77" y="34" font-family="Virgil, Segoe UI Emoji" font-size="16px" fill="#000000" text-anchor="middle" style="white-space: pre;" direction="ltr">
  hear some... 
  </text>

  <text x="77" y="54" font-family="Virgil, Segoe UI Emoji" font-size="16px" fill="#000000" text-anchor="middle" style="white-space: pre;" direction="ltr" id="musical-instrument">
  
  </text>
  
  </g><g><g transform="translate(58.269909313338076 110.66640152094499) rotate(376.85473525232663 -2.010833281617522 -9.22379672053114)"><path d="M-0.49602526386500756 -0.5589011031813929 C-1.8513702880007092 -3.6216740990302467, -1.4712221002293544 -9.966287976751577, -4.434804228722534 -17.88869233788086 M0.41313766548753217 -0.5853920870603062 C-1.507635651648492 -5.2650043002038265, -2.726391141885878 -11.307717620529358, -2.677097311880771 -16.91840346556968" stroke="#000000" stroke-width="1" fill="none"></path></g></g><g transform="translate(54.92996935338704 84.0885386143159) rotate(376.85473525232663 3.7276230794647063 4.301103553228586)"><path d="M2.201787638287595 -0.7360411932465049 C2.201787638287595 -0.7360411932465049, 2.201787638287595 -0.7360411932465049, 2.201787638287595 -0.7360411932465049 M2.201787638287595 -0.7360411932465049 C2.201787638287595 -0.7360411932465049, 2.201787638287595 -0.7360411932465049, 2.201787638287595 -0.7360411932465049 M1.962423979892011 5.320942680796118 C3.0356606567944793 4.480040164177543, 3.979321139429333 3.7272122176731215, 6.456390310703036 1.2891093737682637 M1.7553563699411108 5.9603427408984615 C3.088279263913182 4.219020865779024, 4.728685083546552 2.7173872727361785, 5.710851967586395 1.4077487903883992 M4.761732790829004 9.216301783636112 C5.258831305636767 8.179501488336339, 5.993688716374694 6.726270977719021, 7.097149297990861 5.206029088611273 M4.2891441613671795 8.890569031886656 C5.459315720209753 7.66827795213056, 6.168552764548899 6.60311032205748, 7.816550656617644 5.429011362048356" stroke="#000000" stroke-width="0.5" fill="none"></path><path d="M1.9425483929508847 -0.4378205554993366 C2.5582326726478586 -0.7207749605209, 4.128551096610594 0.09205289375197667, 5.0431960983069075 0.5224524009256464 C5.957841100003221 0.9528519080993161, 6.975066034157929 1.425249116761337, 7.430418403128764 2.1445764875426816 C7.885770772099598 2.863903858324026, 8.121841357116875 3.868172213567647, 7.775310312131914 4.838416625613712 C7.428779267146954 5.808661037659777, 6.197836061480627 7.462533089063717, 5.351232133219 7.966042959819073 C4.504628204957372 8.469552830574429, 3.26997423800654 7.901248317133964, 2.6956867425621485 7.85947585014585 C2.1213992471177567 7.8177033831577365, 2.2348420614316837 8.171367300900602, 1.9055071605526503 7.715408157890389 C1.576172259673617 7.259449014880175, 0.9300155594271625 6.216628819657049, 0.7196773372879481 5.12372099208457 C0.5093391151487338 4.03081316451209, 0.14661123722895314 2.1649737707150187, 0.6434778277173643 1.1579611924555149 C1.1403444182057754 0.15094861419601124, 3.2028944139391595 -0.5836252389576841, 3.700876880218415 -0.9183544774724517 C4.19885934649767 -1.2530837159872192, 3.628612526568561 -1.0857058250485658, 3.6313726253928973 -0.8504142386330908 M4.523800770751242 -0.5433687495441282 C4.922479488927995 -0.3874710365853644, 5.490064897384776 0.9971587780934263, 5.728819967430901 1.8431439788224213 C5.967575037477027 2.6891291795514163, 5.615460490090358 3.715537269849779, 5.956331191027996 4.532542454829842 C6.297201891965633 5.349547639809905, 8.037398202912234 6.0627875462601315, 7.7740441730567245 6.7451750887027995 C7.510690143201215 7.427562631145467, 5.264284837326733 8.619799375130368, 4.376207011894939 8.62686770948585 C3.488129186463145 8.633936043841333, 3.2203765538546394 7.466943128783881, 2.445577220465961 6.787585094835693 C1.670777887077283 6.108227060887505, -0.12233452059344527 5.054130870603538, -0.27258898843712975 4.5507195057967245 C-0.4228434562808142 4.0473081409899105, 1.247538458093717 4.650300887036473, 1.5440504134038542 3.767116905994812 C1.8405623687139914 2.883932924953151, 0.9993109101936919 -0.1332820306565644, 1.5064827434236936 -0.7483843804532411 C2.0136545766536953 -1.3634867302499178, 4.279832791374515 -0.3132470219420056, 4.587081412783864 0.07650280721475244 C4.894330034193214 0.4662526363715105, 3.535337832257286 1.3459199033449818, 3.34997447187979 1.5901145944873072" stroke="#000000" stroke-width="1" fill="none"></path></g><g><g transform="translate(69.6462032939553 147.9508999584699) rotate(356.02471234182775 -6.281724880902345 37.73907922485242)" fill-rule="evenodd"><path d="M-20.00938142341898 9.106369963691737 C-20.00938142341898 9.106369963691737, -20.00938142341898 9.106369963691737, -20.00938142341898 9.106369963691737 M-20.00938142341898 9.106369963691737 C-20.00938142341898 9.106369963691737, -20.00938142341898 9.106369963691737, -20.00938142341898 9.106369963691737 M-21.491304947751082 17.116261178072207 C-16.783250395407627 10.767368467260662, -14.200482756694619 6.153943649290774, -6.7347481529598525 3.2673429252860773 M-21.58512569473914 16.294983317520135 C-16.931241222415967 12.294919026308985, -13.61696831895082 9.577510135623884, -8.938762510139256 1.290307518309139 M-22.039697339668365 24.847249226138693 C-16.447353020273557 18.959456126833494, -10.51921391940021 10.027039365432726, -5.341148720667922 1.8448935283477357 M-22.038451420053335 22.98903496326576 C-14.87611772252733 15.830569595346656, -7.710926940814071 6.7013564163049, -4.0343821473282215 2.77415520904017 M-22.01621320570674 29.630017974888776 C-13.438673218765718 23.70588672089683, -7.4907456701828306 14.177199498633776, 2.3259342241374075 5.125174646690759 M-21.95209284971323 30.78372213757584 C-16.898337321780758 23.0244406361532, -10.508931373341223 17.18443450884579, 1.5025248493341026 4.331243516370925 M-19.9952090972602 33.939279123251914 C-11.506917187019962 21.208339349702754, -1.3574690022682354 11.964756657715522, 2.7315885720811357 5.36575463969015 M-21.752335246050322 33.702950875317335 C-13.517478114457074 26.8802970995539, -5.165071253666708 17.932611006784054, 4.195273909535216 4.920678885613907 M-19.54227421067526 39.35922977127141 C-11.756549932754467 33.01125181953143, -7.346896276634771 20.983306483203815, 9.53602374277877 5.155429786498132 M-20.35279026634862 40.938706362471045 C-12.525502809930714 30.297178940062246, -5.527914894317057 21.281360727574675, 7.891208241953127 6.2663894318588405 M-20.403640097345903 44.78645661787673 C-8.480800349047223 32.056236641230285, 2.5046349667434598 23.192694811147728, 10.56427553988379 10.937772187158025 M-19.718805672939613 44.42895713390394 C-11.943081757992966 36.28997500240561, -4.177682936271491 27.151612055327636, 9.356403689303812 11.755672841086543 M-18.160711924628153 50.97232218288842 C-7.884364436914442 38.699502428673924, -0.386795666325753 27.518538673873625, 13.272855469983222 14.45932438015374 M-19.89699659411682 50.775041295374066 C-10.499491209381084 42.083922892721105, -2.5452826795667516 33.932067605481315, 12.367318047236802 15.262390987718428 M-16.731596243915984 56.23528816523593 C-9.447690265137858 44.80124748072467, 0.8736447049356322 37.83084109809655, 13.158865307740038 21.840243045751365 M-18.89177329221172 56.32898988174837 C-11.93750955965653 49.157440880999665, -4.492086899086475 39.98862076088984, 12.744905629477566 19.59261363795808 M-19.369573222565414 60.2485920847398 C-9.914163043457108 54.68532480794359, -3.2293130093279903 48.196435120022116, 13.850882530750763 24.003655302657585 M-17.038813395517828 62.35620349878489 C-8.914843337621418 51.763916194049536, -0.8486829682986006 41.71635310708274, 13.070502702685129 26.28897474644969 M-17.164624411970433 67.7525706403295 C-7.71236902117395 54.18957887302504, 1.3469027657559103 43.97675518460524, 12.83019294266887 32.23688325091571 M-16.881589666366633 66.1227756813506 C-6.470806028658464 54.4566280328351, 4.5384486081372515 43.536091677994534, 11.032060109575465 34.56689699917406 M-15.385845950496545 71.58762677160279 C-10.609335564917817 64.14949243411937, -3.0138605399436766 58.417988329616136, 11.553499021090886 42.88492900923243 M-14.888783204061141 71.30345995498077 C-6.983018509750124 62.45940327422818, 1.4904809476457483 51.47596566894218, 10.1718516168076 41.38307685077539 M-14.639035360547233 73.16126259726636 C-3.452298579739349 65.46733562795211, 2.4761097494536717 55.93054872235758, 8.45444768563231 49.13815135675997 M-11.986870241942334 73.82370277431957 C-5.916862370914493 67.21877417997356, -0.4085358647733859 60.00003275753638, 9.513001683059535 48.598161166343395 M-11.177281838469007 75.74517521736351 C-5.371820295690469 71.26119048525283, 0.03296320599141822 66.59238535814397, 9.193630297927648 54.78226573309611 M-9.245712437294223 76.53173932534781 C-4.001332048477762 68.82885666526212, 2.4140808578402435 63.17410774201437, 8.434485459028274 56.10174722141336" stroke="#000000" stroke-width="0.5" fill="none"></path><path d="M-5.72969907130173 -0.5775311484932899 C-2.830134987078296 1.7194373862930898, 10.269463955510155 2.6180852951208387, 11.433263942415948 13.444457930021743 C12.597063929321742 24.270830564922647, 5.876629845590479 54.78330727716962, 1.2531008501330325 64.38070466091213 C-3.3704281453244143 73.97810204465465, -12.343332404351756 79.17796603918303, -16.30791003032873 71.02884223247682 C-20.272487656305707 62.87971842577061, -24.454412838126775 27.456813134635293, -22.534364905728822 15.485961820674882 C-20.61431697333087 3.5151105067144712, -7.5618772001800405 1.7666741997819722, -4.787622435941012 -0.7962656512856483 M-3.7283986799238487 1.7336610532086345 C-0.8986148879133777 3.6761441760530094, 9.473552161624403 0.8498826359590783, 10.69203229599924 11.451653749069955 C11.910512430374078 22.053424862180833, 8.076069448205791 55.22236512088271, 3.5824821263251763 65.34428773187389 C-0.911105195555439 75.46621034286507, -11.702158529792875 80.47206487092416, -16.26949163528445 72.18318941501704 C-20.836824740776024 63.894313959109915, -25.409705861591974 27.407277445905336, -23.82151650662427 15.611034996431142 C-22.233327151656567 3.8147925469569497, -9.789107883922131 4.20433928530443, -6.740355505478219 1.4057347181718796" stroke="#000000" stroke-width="1" fill="none"></path></g></g><g><g transform="translate(81.88557884010379 157.0830876737636) rotate(7.182594496707925 13.754138532175773 -24.402000629486224)"><path d="M-0.5775311484932899 7.746950897144828 C4.159662433430273 2.7012070201449427, 26.72447139749031 -12.585242230250135, 28.085808212844842 -23.301559405793814 C29.447145028199376 -34.01787658133749, 10.877998359949643 -51.13393973441977, 7.59048974363391 -56.55095215611725 M1.3201262692082674 6.908160769016225 C5.950445402176771 2.005891382360864, 26.40907308115351 -11.937370123714773, 27.267533317044563 -22.329054580993397 C28.125993552935615 -32.72073903827202, 9.572452928322683 -50.077469799436585, 6.470887684554576 -55.44194597465551" stroke="#000000" stroke-width="1" fill="none"></path></g></g><g><g transform="translate(35.62172654802896 160.32256010089264) rotate(348.60478902668814 -11.788057416765298 -22.8917310267841)"><path d="M3.7747158877931186 7.19729665526188 C-1.2078216350353461 4.4988338195285085, -23.838203697937246 0.21148235242763924, -26.894556290117 -9.818193541587688 C-29.95090888229675 -19.847869435603016, -16.74314547278042 -45.686631898945954, -14.563399665285393 -52.98075870883008 M2.5223909756641487 6.281463277749708 C-2.0690610938328455 3.7789182054283357, -21.73752724857692 1.0143694247207264, -24.74752218016507 -8.634672052058749 C-27.75751711175322 -18.283713528838224, -17.43127881313729 -44.261104265489436, -15.53757861386475 -51.612785582927145" stroke="#000000" stroke-width="1" fill="none"></path></g></g><g transform="translate(32.86646474566521 111.33423474406561) rotate(350.1341930569157 24.351151420023825 16.005987923857447)"><path d="M2.1302381029255772 1.851787731264003 C2.1302381029255772 1.851787731264003, 2.1302381029255772 1.851787731264003, 2.1302381029255772 1.851787731264003 M2.1302381029255772 1.851787731264003 C2.1302381029255772 1.851787731264003, 2.1302381029255772 1.851787731264003, 2.1302381029255772 1.851787731264003 M3.5585343240802123 6.758621411923317 C4.553870713397795 6.217278758270403, 5.31115521239672 4.37337580197972, 8.097037893742309 0.2236487229304478 M3.5103206976358727 6.638659317199138 C4.920094888651973 4.845100054720616, 6.733167495969567 2.594761117530281, 8.302813057810054 0.39659343705941885 M1.462202436048078 13.30219250006332 C7.138260679622127 6.990416426131754, 13.06698178956455 2.23987138381051, 15.250862655247024 1.6579677753333575 M2.924116125832784 12.637912097589215 C5.731074836006951 10.514711692451682, 8.605041192984977 7.395055102821282, 14.251766860502235 -0.09514035040544205 M3.9826306938887743 21.47476501564516 C5.700774783400264 14.656477617941071, 9.649365938488874 12.954066600621857, 19.51462604717624 -0.07998597025555831 M2.089985450333467 19.59621335740222 C6.61206204652817 14.8356777182696, 11.341808912203128 11.286972894531516, 19.318834798944113 0.8806706167789056 M4.387194978454643 25.37748358205271 C10.813013102264996 18.436480250955682, 18.831714240928815 5.798043835180685, 26.53095883630902 0.07933471643220358 M2.7477553919046454 25.98920122713161 C10.819612839470839 15.993264853516543, 18.237560594663936 6.043340886652825, 24.580312789759937 0.44402174570452146 M2.24623419356012 31.47937826389363 C7.5490982615244135 22.50711127750158, 14.110960863913238 20.021076955617076, 30.984517203384883 1.9346262748466447 M3.2280689590837923 31.625344857069756 C11.101387433316347 22.383842500796124, 18.143898595400373 15.660712065599444, 28.699209077024705 -0.17394125730529275 M5.723184756561224 34.25955529134737 C18.397872581807466 22.080936536540722, 28.391470990913575 7.228376071867245, 34.06217506575985 -1.6834425648327809 M6.755275655164425 32.319321766458614 C14.581736468233586 23.61068514473266, 22.867524592963562 14.445117891632997, 35.95065441403194 1.103177876991417 M9.13106641087092 35.014440875930006 C20.67319850283058 21.54199194372699, 30.467711874335187 11.369660655569145, 40.818566753818416 -1.1410118317582985 M10.63690205949701 35.20703570587676 C18.529405046336628 26.115165970799247, 26.225911344831573 17.104108461851006, 40.786133717103624 -0.7161270914950748 M15.211249602835732 34.29655666759824 C24.97700802338997 22.77112410228579, 37.715129884767876 11.88546773479229, 46.582146039964044 3.4942601053634057 M15.917419204365569 33.809392114343396 C25.678767112956578 24.442099913229058, 33.718977850378316 13.503801853137961, 45.614545094580734 2.429025507591046 M19.698629075868627 32.73045387786814 C28.45978261616205 25.84035974574453, 36.93013226400587 16.494090910679223, 47.95365837054327 2.665519896489016 M21.31841616912057 35.47323224243709 C29.113583457399592 24.683144709340578, 38.89231135703295 16.214777411708276, 49.175672078747304 4.489228613268963 M25.60039124732563 35.451488736919195 C36.34874098656629 27.3727581620145, 42.3088593003316 17.8301474463225, 48.02737348896906 9.387943753134621 M26.89236745705554 34.435108609399826 C33.46073119482355 27.087512916639433, 40.24074241272001 17.952888186837015, 49.13641624895379 7.991010976117266 M30.385423918600708 33.90291829582191 C38.14936456284238 26.854062423175833, 44.478705431042066 19.402902394740163, 50.66985281259743 15.687512905479673 M32.58704270550194 34.243380805364616 C36.39006778344662 29.83639323432054, 40.302739848339165 24.42159464890453, 49.744564608493725 15.100612615377907 M36.3626019989383 34.80538871089231 C43.203663878865115 29.58804834816485, 47.28535625536633 25.125804636035483, 50.91563664570903 18.71896134125788 M37.91698288910655 35.3253380224691 C40.207997522824016 29.821404794824023, 46.11813398021564 25.656932941977495, 49.66528478999143 20.284533997017633 M43.12110977634828 32.71347054515863 C46.03087155659827 31.472365806831966, 47.88894225373678 29.472662283133975, 50.50668615680163 25.48985361781296 M43.70782800573896 33.58912146271104 C45.4782728946498 30.613748301217182, 48.28954534078707 28.01588030061437, 50.53959865942572 25.809267785477907" stroke="#000000" stroke-width="0.5" fill="none"></path><path d="M9.114111004529827 -1.2692366018891335 M8.773730142174594 0.2061566486954689 C18.311136317479452 -1.5950138497551818, 30.229852002061655 0.7074103426734071, 41.403253285522425 0.1004897728562355 M8.935897568373315 0.1899866871535778 C16.602380614423474 -0.26911869375579744, 23.152488690991206 0.6718647208941659, 40.55519005128261 -0.7598902173340321 M40.699308878118956 0 C47.36170881715826 -0.9735668078064919, 49.65892321287949 3.6896816188290495, 47.38094097792466 8.544547421990268 M42.48021928810593 -1.6735995188355446 C44.81393165280334 1.2749326158314944, 47.574601642110544 3.8031390307292123, 50.63157307288905 8.806403447820179 M47.64533848565683 7.963749249501323 C49.38787645694764 14.95859755305093, 50.21331438509933 20.20076990768269, 48.90967542573096 23.946217823194125 M47.911492682634275 7.486485067406774 C48.81174075280779 11.854552584242924, 48.2891647116205 15.474082623001628, 48.64882611341454 24.399762696142087 M48.70230284004767 24.008981885786156 C47.37919027029832 29.377456822608167, 46.007289347324885 31.856180713110895, 41.50832716965195 32.13392643683526 M48.31536037146409 25.90908088761101 C48.892171148278905 31.27741782366162, 48.02477119853012 31.322620240756603, 40.33006352887567 33.16972252518806 M38.89100166999813 31.214732647472353 C30.43107651968193 32.981648621001725, 19.537031191143075 33.56962579194594, 6.170161826668613 31.371974707179994 M41.35953172513362 31.629024092638225 C33.870384159443866 31.11815864658275, 24.97726396802169 31.4219808063499, 8.809933999685876 31.814538423502178 M8.002993961928718 32.01197584771487 C4.371279283781328 31.193771169119806, 0.44195953756570816 31.173149028037244, -1.0038083419203758 25.176509047324757 M7.834093390165203 31.012476251059503 C3.9459688266560216 32.63269527346763, -1.652599488571286 29.9143983691824, 1.3282153259962795 23.49098305220435 M-1.4338654563841537 22.98251711064081 C-0.39720972506533087 16.817925165345258, 1.230945496014559 11.066311203603, 0.7130526384819 8.490474658693248 M-0.17031931577334491 24.801286676217387 C0.6415569315169487 19.246560204829308, 0.7041241118777206 16.718536717580253, 0.08410640592417196 8.784776837388273 M0 8.002993961928718 C-0.7118883952498436 3.102937548775949, 1.7255695307448287 0.12630649656057358, 8.311511574445598 0.4536738023161888 M0.9408954754471779 9.9684892726525 C2.195089341327548 0.8252598760470531, 4.346629234199204 -2.1007480572909114, 8.49075950173878 2.130372171476483" stroke="#000000" stroke-width="1" fill="none"></path></g><g><g transform="translate(62.89030388429774 132.98012540529618) rotate(0 -5.824345684587797 3.10745426729207)" fill-rule="evenodd"><path d="M4.303073234626416 1.4898589061461662 L-22.14727801794527 -0.8180141815332853 L-13.76455693421461 3.907452150032684 L-4.088038263765908 7.883914412273434 L0.8262556793568976 7.764327948648756 L9.971495873282928 -1.5089729146923219 L2.8719661904064457 0.5217273639403557" stroke="none" stroke-width="0" fill="#ffffff" fill-rule="evenodd"></path><path d="M1.8039629799810688 -0.26124307942760233 C-0.27930964339626185 -0.15668673936899297, -5.317724704218213 1.2638026268103872, -9.225702772413653 1.2873793981036192 C-13.133680840609093 1.3109561693968512, -22.56769158702925 -1.4002471141236315, -21.64390542919157 -0.11978245166821105 C-20.72011927135389 1.1606822107872092, -8.733758548230824 9.457640041258358, -3.682985825387574 8.97016737283614 C1.3677868974556757 8.482694704413923, 7.692609541281524 -1.4749058874981544, 8.660730907867928 -3.044618462201515 C9.628852274454331 -4.614331036904876, 2.915418179978 -1.1119544291322712, 2.125742374130849 -0.44810807538402314 M3.439903824220736 1.9992492135409539 C1.1293941672974341 2.294959256037441, -6.1046211978300695 3.053159488846899, -10.382228887233223 2.875290942573736 C-14.659836576636376 2.6974223963005732, -23.43260422259219 -0.19807837286949526, -22.225742312198186 0.9320379359019764 C-21.018880401804182 2.062154244673448, -8.606449469833594 10.244163353914567, -3.141057424869201 9.655988795202566 C2.3243346200951915 9.067814236490564, 9.519434769140023 -1.2743319299077682, 10.56660995758817 -2.5970094163700286 C11.613785146036317 -3.919686902832289, 4.66092502551371 1.3089864251470529, 3.141993705819685 1.719923876429004" stroke="#000000" stroke-width="1" fill="none"></path></g></g><g transform="translate(42.142491093753506 116.14631096633082) rotate(0 4.999438574533883 5.551605443045531)"><path d="M4.45782293884909 -0.9326884534016306 C5.295610775913359 -0.9167893158372885, 6.924521963308981 1.0048190997803537, 7.943731539399957 2.0741660535862847 C8.962941115490933 3.1435130073922157, 10.368971090030822 4.522431284890434, 10.573080395394948 5.4833932694339556 C10.777189700759074 6.444355253977477, 9.78757955176577 6.850741215667474, 9.16838737158471 7.839937960847411 C8.549195191403651 8.829134706027348, 7.789211918148153 10.988633665552944, 6.857927314308586 11.41857374051358 C5.92664271046902 11.848513815474215, 4.699615789648806 10.841554580327385, 3.580679748547312 10.419578410611223 C2.4617437074458177 9.99760224089506, 0.7241735005929616 9.941069310169006, 0.1443110676996211 8.886716722216605 C-0.4355513651937194 7.8323641342642025, -0.17360185993687022 5.342547057188992, 0.10150515118726933 4.093462882896811 C0.37661216231140887 2.844378708604631, 0.8341248939866398 1.9286940779225992, 1.7949531344444583 1.3922116764635213 C2.7557813749022766 0.8557292750044435, 4.854462568768401 0.9738000936446224, 5.86647459393418 0.874568474142345 C6.878486619099959 0.7753368546400675, 7.83259339567641 0.7121923991583143, 7.867025285439131 0.7968219594498569 M6.678882841446251 0.7423589260577108 C8.027277040926903 0.9024498580255306, 10.597151706407942 1.917323664168879, 10.984672320102593 3.1836619604753165 C11.372192933797244 4.450000256781754, 9.545409941306874 7.028137969137836, 9.004006523614162 8.340388703896336 C8.46260310592145 9.652639438654836, 8.239065757942267 10.37062007751252, 7.736251813946321 11.057166369026318 C7.233437869950375 11.743712660540115, 6.942507419008256 12.706711860216632, 5.987122859638488 12.45966645297912 C5.03173830026872 12.212621045741606, 2.8658596266884784 10.737041719318148, 2.003944457727716 9.574893925601245 C1.1420292887669534 8.412746131884342, 1.0470451727360055 6.928423939345667, 0.8156318458739129 5.486779690677702 C0.5842185190118202 4.045135442009737, 0.16728566431006747 1.7644317033119492, 0.6154644965551599 0.9250284335934569 C1.0636433288002523 0.08562516387496455, 2.6495705879227742 0.5065089867092791, 3.5047048393444675 0.450360072366748 C4.359839090766161 0.3942111580242169, 5.168691850893288 0.7112325287757679, 5.74627000508532 0.5881349475382702 C6.323848159277351 0.4650373663007725, 6.69798806461375 -0.1852020401272229, 6.970173764496655 -0.2882254150582382" stroke="none" stroke-width="0" fill="#ffffff"></path><path d="M5.6680054775166875 -0.6590987997892546 C6.563841478315811 -0.5993282504133247, 7.30493941119736 0.7439599976545872, 7.914471660758635 1.5354575622884354 C8.52400391031991 2.3269551269222837, 8.961883209989097 2.85316760285317, 9.325198974884339 4.089886588013835 C9.688514739779581 5.3266055731745, 10.443345793965197 7.740955765153761, 10.094366250130085 8.955771473252426 C9.745386706294973 10.170587181351092, 8.40936053349964 11.190404535537294, 7.231321711873672 11.378780836605824 C6.053282890247705 11.567157137674354, 4.050986290408715 10.787564489723033, 3.0261333203742815 10.086029279663606 C2.001280350339848 9.384494069604179, 1.5543703670343694 8.279226565518046, 1.0822038916670706 7.169569576249263 C0.6100374162997719 6.059912586980479, -0.028814446970273133 4.425951918104415, 0.19313446817048874 3.428087344050902 C0.4150833833112506 2.430222769997389, 1.4443716509901274 1.6094717167066568, 2.413897382511642 1.1823821319281835 C3.3834231140331563 0.7552925471497103, 5.409289929460024 1.014991376046624, 6.010288857299575 0.8655498353800626 C6.611287785139127 0.716108294713501, 6.163838018250257 0.43068525226395915, 6.019890949548949 0.28573288792881435 M6.643982460677989 -0.3619713511721878 C7.924596206417309 -0.35270554263385057, 7.922088571141543 0.9818733188924659, 8.584447049287359 1.682204099218655 C9.246805527433175 2.382534879544844, 10.609649510124727 2.859619862821597, 10.618133329552883 3.840013330784948 C10.626617148981039 4.8204067987483, 9.135981324069492 6.218351887780859, 8.635349965856296 7.564564906998762 C8.1347186076431 8.910777926216666, 8.637924917510148 11.626437966566575, 7.614345180273709 11.91729144609237 C6.590765443037269 12.208144925618166, 3.6588206298038077 9.975682772612492, 2.4938715424376574 9.30968578415353 C1.3289224550715069 8.643688795694567, 1.1926879204326757 8.544717375534159, 0.6246506560768053 7.921309515338597 C0.056613391720934714 7.297901655143034, -1.012631048244885 6.5459919426809225, -0.9143520436975656 5.569238622980153 C-0.8160730391502463 4.592485303279384, -0.03805262385721053 3.1051379947635236, 1.2143246833607213 2.060789597133982 C2.4667019905786534 1.0164411995044405, 6.059489737774097 -0.36694868937409925, 6.599911799610025 -0.6968517627970963 C7.140333861445953 -1.0267548362200933, 4.660845932338887 0.016974208238151586, 4.4568570543762895 0.08137115659600003" stroke="#000000" stroke-width="1" fill="none"></path></g><g transform="translate(44.59049837486032 118.8130293230102) rotate(0 1.5267746544984675 2.0356995393313184)"><path d="M1.526774654498457 0 C1.837548734218558 -0.025990605332743628, 2.2575698990514095 0.19589588202519403, 2.508166485193512 0.476263219366698 C2.758763071335615 0.756630556708202, 2.9735485370252697 1.2526563424439778, 3.030354171351073 1.682204024049024 C3.087159805676876 2.11175170565407, 3.012565596264173 2.6758114172421075, 2.8490002911483305 3.053549308996975 C2.685434986032488 3.4312872007518425, 2.3563645611239235 3.799451030314686, 2.048962340656018 3.9486313745782278 C1.7415601201881123 4.09781171884177, 1.3119891888088022 4.09781171884177, 1.0045869683408966 3.9486313745782278 C0.6971847478729909 3.799451030314686, 0.36811432296442637 3.4312872007518425, 0.20454901784858381 3.053549308996975 C0.04098371273274126 2.6758114172421075, -0.03361049667996171 2.1117517056540698, 0.023195137645841246 1.6822040240490237 C0.08000077197164421 1.2526563424439776, 0.2947862376612989 0.7566305567082021, 0.5453828238034015 0.47626321936669824 C0.7959794099455042 0.1958958820251943, 1.3632093493826143 0.07259153809667866, 1.5267746544984568 0 C1.6903399596142994 -0.07259153809667866, 1.526774654498457 0.006785665131104346, 1.526774654498457 0.0407139907866263 M1.526774654498457 0 C1.837548734218558 -0.025990605332743628, 2.2575698990514095 0.19589588202519403, 2.508166485193512 0.476263219366698 C2.758763071335615 0.756630556708202, 2.9735485370252697 1.2526563424439778, 3.030354171351073 1.682204024049024 C3.087159805676876 2.11175170565407, 3.012565596264173 2.6758114172421075, 2.8490002911483305 3.053549308996975 C2.685434986032488 3.4312872007518425, 2.3563645611239235 3.799451030314686, 2.048962340656018 3.9486313745782278 C1.7415601201881123 4.09781171884177, 1.3119891888088022 4.09781171884177, 1.0045869683408966 3.9486313745782278 C0.6971847478729909 3.799451030314686, 0.36811432296442637 3.4312872007518425, 0.20454901784858381 3.053549308996975 C0.04098371273274126 2.6758114172421075, -0.03361049667996171 2.1117517056540698, 0.023195137645841246 1.6822040240490237 C0.08000077197164421 1.2526563424439776, 0.2947862376612989 0.7566305567082021, 0.5453828238034015 0.47626321936669824 C0.7959794099455042 0.1958958820251943, 1.3632093493826143 0.07259153809667866, 1.5267746544984568 0 C1.6903399596142994 -0.07259153809667866, 1.526774654498457 0.006785665131104346, 1.526774654498457 0.0407139907866263" stroke="none" stroke-width="0" fill="#000000"></path><path d="M1.526774654498457 0 C1.837548734218558 -0.025990605332743628, 2.2575698990514095 0.19589588202519403, 2.508166485193512 0.476263219366698 C2.758763071335615 0.756630556708202, 2.9735485370252697 1.2526563424439778, 3.030354171351073 1.682204024049024 C3.087159805676876 2.11175170565407, 3.012565596264173 2.6758114172421075, 2.8490002911483305 3.053549308996975 C2.685434986032488 3.4312872007518425, 2.3563645611239235 3.799451030314686, 2.048962340656018 3.9486313745782278 C1.7415601201881123 4.09781171884177, 1.3119891888088022 4.09781171884177, 1.0045869683408966 3.9486313745782278 C0.6971847478729909 3.799451030314686, 0.36811432296442637 3.4312872007518425, 0.20454901784858381 3.053549308996975 C0.04098371273274126 2.6758114172421075, -0.03361049667996171 2.1117517056540698, 0.023195137645841246 1.6822040240490237 C0.08000077197164421 1.2526563424439776, 0.2947862376612989 0.7566305567082021, 0.5453828238034015 0.47626321936669824 C0.7959794099455042 0.1958958820251943, 1.3632093493826143 0.07259153809667866, 1.5267746544984568 0 C1.6903399596142994 -0.07259153809667866, 1.526774654498457 0.006785665131104346, 1.526774654498457 0.0407139907866263 M1.526774654498457 0 C1.837548734218558 -0.025990605332743628, 2.2575698990514095 0.19589588202519403, 2.508166485193512 0.476263219366698 C2.758763071335615 0.756630556708202, 2.9735485370252697 1.2526563424439778, 3.030354171351073 1.682204024049024 C3.087159805676876 2.11175170565407, 3.012565596264173 2.6758114172421075, 2.8490002911483305 3.053549308996975 C2.685434986032488 3.4312872007518425, 2.3563645611239235 3.799451030314686, 2.048962340656018 3.9486313745782278 C1.7415601201881123 4.09781171884177, 1.3119891888088022 4.09781171884177, 1.0045869683408966 3.9486313745782278 C0.6971847478729909 3.799451030314686, 0.36811432296442637 3.4312872007518425, 0.20454901784858381 3.053549308996975 C0.04098371273274126 2.6758114172421075, -0.03361049667996171 2.1117517056540698, 0.023195137645841246 1.6822040240490237 C0.08000077197164421 1.2526563424439776, 0.2947862376612989 0.7566305567082021, 0.5453828238034015 0.47626321936669824 C0.7959794099455042 0.1958958820251943, 1.3632093493826143 0.07259153809667866, 1.5267746544984568 0 C1.6903399596142994 -0.07259153809667866, 1.526774654498457 0.006785665131104346, 1.526774654498457 0.0407139907866263" stroke="#000000" stroke-width="1" fill="none"></path></g><g transform="translate(59.999504596657516 114.95584339947015) rotate(0 4.999438574533883 5.551605443045531)"><path d="M5.308518537210615 0.8539733300769976 C6.516625074982837 1.2195845292886947, 8.513304247194823 2.018994386599038, 9.260705349576254 2.6677070074624027 C10.008106451957685 3.3164196283257676, 9.815184417800246 3.6084579543754725, 9.792925151499205 4.746249055257186 C9.770665885198163 5.8840401561389, 9.68717186944166 8.52460441318351, 9.127149751770002 9.494453612752684 C8.567127634098345 10.464302812321858, 7.5798542715158455 10.308726008698958, 6.432792445469259 10.565344252672224 C5.285730619422672 10.82196249664549, 3.2389949170828287 11.588757829676483, 2.2447787954904848 11.034163076592279 C1.2505626738981408 10.479568323508074, 0.799089601273409 8.399780897536694, 0.467495715915196 7.237775734166993 C0.13590183055698302 6.075770570797292, -0.019766906723585553 4.981970850958322, 0.2552154833412068 4.062132096374072 C0.5301978734059991 3.1422933417898227, 0.8939725360685118 2.301970264727861, 2.1173900563039503 1.718743206661495 C3.3408075765393885 1.135516148595129, 6.6470231337830965 0.570327990696244, 7.595720604753837 0.5627697479758762 C8.544418075724579 0.5552115052555084, 7.853533515005286 1.731916076732025, 7.809574882128395 1.6733937503392884 M8.847924112887636 0.6698561841014472 C9.703896229402657 1.3371307207534446, 8.697846969443841 3.620515832178553, 8.822292654184771 4.889531944119464 C8.946738338925702 6.158548056060376, 9.562315562596414 7.155255911450876, 9.594598221333213 8.283952855746916 C9.626880880070011 9.412649800042956, 9.817406710298453 11.188110293145096, 9.01598860660557 11.661713609895704 C8.214570502912686 12.135316926646313, 5.94721107527342 11.625773301845948, 4.786089599175916 11.125572756250566 C3.6249681230784114 10.625372210655184, 2.8930501904160244 9.808641286856716, 2.0492597500205445 8.660510336323412 C1.2054693096250646 7.5123793857901076, -0.08582201274781584 5.288449108855593, -0.27665304319696293 4.23678705305074 C-0.46748407364611 3.1851249972458877, 0.4157821112008688 3.025399541140761, 0.9042735673256619 2.350538001494298 C1.392765023450455 1.6756764618478348, 1.587965121270405 0.6172576600432482, 2.654295693551796 0.1876178151719614 C3.720626265833187 -0.2420220296993254, 6.439397622643224 -0.15024640905371484, 7.3022570010140075 -0.22730106773342307 C8.165116379384791 -0.3043557264131313, 8.105901709770398 -0.4631407842659718, 7.8314519637765 -0.27471013690628787" stroke="none" stroke-width="0" fill="#ffffff"></path><path d="M3.503740320503753 0.21321407708604312 C4.302669564793456 -0.10158264391953814, 5.545545160158454 -0.6862199692672407, 6.711770614031774 -0.07130596683605095 C7.877996067905094 0.5436080355951388, 9.875072867256165 2.5911111268349556, 10.501093043743673 3.9026980916731815 C11.12711322023118 5.214285056511407, 10.955053947969462 6.839772371437337, 10.467891672956815 7.798215822193303 C9.980729397944168 8.75665927294927, 8.519487805196118 9.271853941314905, 7.578119393667793 9.653358796208979 C6.636750982139468 10.034863651103052, 5.854818461507795 10.307655443648276, 4.8196812037868675 10.087244951557748 C3.7845439460659396 9.86683445946722, 2.091352769628255 9.049395807219991, 1.367295847342227 8.330895843665816 C0.6432389250561988 7.612395880111641, 0.4630128633988684 6.671088136381099, 0.47533967007069844 5.776245170232695 C0.4876664767425285 4.88140220408429, 0.7172652523225577 3.914898846410366, 1.4412566873732073 2.961838046775389 C2.165248122423857 2.0087772471404124, 4.181246828395919 0.6238516078494712, 4.819288280374597 0.05788037242283561 C5.457329732353275 -0.5080908630038, 5.238585676444748 -0.35090993181372676, 5.269505399245275 -0.4339893657844245 M5.3222715641977985 0.0841909513603687 C6.242723321115157 -0.06544846069610802, 8.3502108487837 -0.31852166510404756, 9.044180576507678 0.28738605873696965 C9.738150304231656 0.8932937825779869, 9.24483549691097 2.1710103284462567, 9.486089930541663 3.719637294406472 C9.727344364172357 5.268264260366688, 11.064137847282229 8.603692472626676, 10.491707178291836 9.579147854498263 C9.919276509301444 10.55460323636985, 7.267140322312966 9.391909554755916, 6.051505916599304 9.572369585635993 C4.835871510885641 9.75282961651607, 4.294741489547434 10.67307041031263, 3.1979007440098615 10.661908039778721 C2.1010599984722886 10.650745669244813, 0.1316710570014633 10.390591191112417, -0.5295385566261332 9.505395362432546 C-1.19074817025373 8.620199533752675, -1.3869336550253402 6.867052740545743, -0.7693569377557177 5.3507330676994975 C-0.1517802204860953 3.834413394853252, 2.3293752543252917 1.3060564823391498, 3.1759217469916012 0.40747732535507186 C4.022468239657911 -0.491101831629006, 3.9631258579195774 0.15455978925308264, 4.30992201824214 -0.04074187420496944 C4.656718178564702 -0.23604353766302152, 5.1280756384393635 -1.0442124721834458, 5.256698708926975 -0.7643326553932406" stroke="#000000" stroke-width="1" fill="none"></path></g><g transform="translate(62.44751187776569 117.62256175615045) rotate(0 1.5267746544984675 2.0356995393313184)"><path d="M1.526774654498457 0 C1.837548734218558 -0.025990605332743628, 2.2575698990514095 0.19589588202519403, 2.508166485193512 0.476263219366698 C2.758763071335615 0.756630556708202, 2.9735485370252697 1.2526563424439778, 3.030354171351073 1.682204024049024 C3.087159805676876 2.11175170565407, 3.012565596264173 2.6758114172421075, 2.8490002911483305 3.053549308996975 C2.685434986032488 3.4312872007518425, 2.3563645611239235 3.799451030314686, 2.048962340656018 3.9486313745782278 C1.7415601201881123 4.09781171884177, 1.3119891888088022 4.09781171884177, 1.0045869683408966 3.9486313745782278 C0.6971847478729909 3.799451030314686, 0.36811432296442637 3.4312872007518425, 0.20454901784858381 3.053549308996975 C0.04098371273274126 2.6758114172421075, -0.03361049667996171 2.1117517056540698, 0.023195137645841246 1.6822040240490237 C0.08000077197164421 1.2526563424439776, 0.2947862376612989 0.7566305567082021, 0.5453828238034015 0.47626321936669824 C0.7959794099455042 0.1958958820251943, 1.3632093493826143 0.07259153809667866, 1.5267746544984568 0 C1.6903399596142994 -0.07259153809667866, 1.526774654498457 0.006785665131104346, 1.526774654498457 0.0407139907866263 M1.526774654498457 0 C1.837548734218558 -0.025990605332743628, 2.2575698990514095 0.19589588202519403, 2.508166485193512 0.476263219366698 C2.758763071335615 0.756630556708202, 2.9735485370252697 1.2526563424439778, 3.030354171351073 1.682204024049024 C3.087159805676876 2.11175170565407, 3.012565596264173 2.6758114172421075, 2.8490002911483305 3.053549308996975 C2.685434986032488 3.4312872007518425, 2.3563645611239235 3.799451030314686, 2.048962340656018 3.9486313745782278 C1.7415601201881123 4.09781171884177, 1.3119891888088022 4.09781171884177, 1.0045869683408966 3.9486313745782278 C0.6971847478729909 3.799451030314686, 0.36811432296442637 3.4312872007518425, 0.20454901784858381 3.053549308996975 C0.04098371273274126 2.6758114172421075, -0.03361049667996171 2.1117517056540698, 0.023195137645841246 1.6822040240490237 C0.08000077197164421 1.2526563424439776, 0.2947862376612989 0.7566305567082021, 0.5453828238034015 0.47626321936669824 C0.7959794099455042 0.1958958820251943, 1.3632093493826143 0.07259153809667866, 1.5267746544984568 0 C1.6903399596142994 -0.07259153809667866, 1.526774654498457 0.006785665131104346, 1.526774654498457 0.0407139907866263" stroke="none" stroke-width="0" fill="#000000"></path><path d="M1.526774654498457 0 C1.837548734218558 -0.025990605332743628, 2.2575698990514095 0.19589588202519403, 2.508166485193512 0.476263219366698 C2.758763071335615 0.756630556708202, 2.9735485370252697 1.2526563424439778, 3.030354171351073 1.682204024049024 C3.087159805676876 2.11175170565407, 3.012565596264173 2.6758114172421075, 2.8490002911483305 3.053549308996975 C2.685434986032488 3.4312872007518425, 2.3563645611239235 3.799451030314686, 2.048962340656018 3.9486313745782278 C1.7415601201881123 4.09781171884177, 1.3119891888088022 4.09781171884177, 1.0045869683408966 3.9486313745782278 C0.6971847478729909 3.799451030314686, 0.36811432296442637 3.4312872007518425, 0.20454901784858381 3.053549308996975 C0.04098371273274126 2.6758114172421075, -0.03361049667996171 2.1117517056540698, 0.023195137645841246 1.6822040240490237 C0.08000077197164421 1.2526563424439776, 0.2947862376612989 0.7566305567082021, 0.5453828238034015 0.47626321936669824 C0.7959794099455042 0.1958958820251943, 1.3632093493826143 0.07259153809667866, 1.5267746544984568 0 C1.6903399596142994 -0.07259153809667866, 1.526774654498457 0.006785665131104346, 1.526774654498457 0.0407139907866263 M1.526774654498457 0 C1.837548734218558 -0.025990605332743628, 2.2575698990514095 0.19589588202519403, 2.508166485193512 0.476263219366698 C2.758763071335615 0.756630556708202, 2.9735485370252697 1.2526563424439778, 3.030354171351073 1.682204024049024 C3.087159805676876 2.11175170565407, 3.012565596264173 2.6758114172421075, 2.8490002911483305 3.053549308996975 C2.685434986032488 3.4312872007518425, 2.3563645611239235 3.799451030314686, 2.048962340656018 3.9486313745782278 C1.7415601201881123 4.09781171884177, 1.3119891888088022 4.09781171884177, 1.0045869683408966 3.9486313745782278 C0.6971847478729909 3.799451030314686, 0.36811432296442637 3.4312872007518425, 0.20454901784858381 3.053549308996975 C0.04098371273274126 2.6758114172421075, -0.03361049667996171 2.1117517056540698, 0.023195137645841246 1.6822040240490237 C0.08000077197164421 1.2526563424439776, 0.2947862376612989 0.7566305567082021, 0.5453828238034015 0.47626321936669824 C0.7959794099455042 0.1958958820251943, 1.3632093493826143 0.07259153809667866, 1.5267746544984568 0 C1.6903399596142994 -0.07259153809667866, 1.526774654498457 0.006785665131104346, 1.526774654498457 0.0407139907866263" stroke="#000000" stroke-width="1" fill="none"></path></g></svg>